<svg width="128" height="48" viewBox="0 0 128 48" fill="none" xmlns="http://www.w3.org/2000/svg">
<rect width="128" height="48" fill="#DEDEDE"/>
<g id="Cdda Landing Page">
<path d="M-453 -507C-453 -508.105 -452.105 -509 -451 -509H7000C7001.1 -509 7002 -508.105 7002 -507V5761C7002 5762.1 7001.1 5763 7000 5763H-451C-452.105 5763 -453 5762.1 -453 5761V-507Z" fill="#404040"/>
<path d="M-451 -508H7000V-510H-451V-508ZM7001 -507V5761H7003V-507H7001ZM7000 5762H-451V5764H7000V5762ZM-452 5761V-507H-454V5761H-452ZM-451 5762C-451.552 5762 -452 5761.55 -452 5761H-454C-454 5762.66 -452.657 5764 -451 5764V5762ZM7001 5761C7001 5761.55 7000.55 5762 7000 5762V5764C7001.66 5764 7003 5762.66 7003 5761H7001ZM7000 -508C7000.55 -508 7001 -507.552 7001 -507H7003C7003 -508.657 7001.66 -510 7000 -510V-508ZM-451 -510C-452.657 -510 -454 -508.657 -454 -507H-452C-452 -507.552 -451.552 -508 -451 -508V-510Z" fill="white" fill-opacity="0.1"/>
<g id="Cdda Landing Page 1512px Screen" clip-path="url(#clip0_16_3)">
<rect width="1512" height="5470" transform="translate(-108 -56)" fill="white"/>
<g id="Hero header section" clip-path="url(#clip1_16_3)">
<rect width="1512" height="982" transform="translate(-108 -56)" fill="url(#paint0_linear_16_3)"/>
<g id="header section" filter="url(#filter0_dddd_16_3)">
<path d="M-28 -8C-28 -12.4183 -24.4183 -16 -20 -16H1316C1320.42 -16 1324 -12.4183 1324 -8V56C1324 60.4183 1320.42 64 1316 64H-20C-24.4183 64 -28 60.4183 -28 56V-8Z" fill="white"/>
<path d="M-27.5 -8C-27.5 -12.1421 -24.1421 -15.5 -20 -15.5H1316C1320.14 -15.5 1323.5 -12.1421 1323.5 -8V56C1323.5 60.1421 1320.14 63.5 1316 63.5H-20C-24.1422 63.5 -27.5 60.1421 -27.5 56V-8Z" stroke="#E6E6E6"/>
<g id="Logo">
<g id="dda">
<path id="a" d="M128 28.7994V48H119.614V44.6829C116.548 46.7773 112.844 48 108.855 48C103.756 48 99.1208 45.9991 95.6914 42.7381C97.6019 40.4337 99.052 37.7294 99.8896 34.769C101.817 37.6747 105.113 39.5908 108.855 39.5908C114.798 39.5908 119.614 34.7604 119.614 28.8009C119.614 22.8414 114.798 18.011 108.855 18.011C105.602 18.011 102.691 19.4567 100.717 21.7424V11.42C103.187 10.252 105.947 9.60034 108.855 9.60034C119.428 9.60034 128 18.198 128 28.8009V28.7994Z" fill="url(#paint1_linear_16_3)"/>
<path id="d" d="M98.0967 0V28.7994C98.0967 33.3348 96.5276 37.5021 93.9042 40.7875C93.3535 41.4794 92.7568 42.131 92.1171 42.738C88.6877 46.0005 84.052 47.9999 78.9531 47.9999C73.8541 47.9999 69.2185 45.999 65.7891 42.738C67.6996 40.4336 69.1496 37.7293 69.9873 34.769C71.915 37.6747 75.211 39.5907 78.9531 39.5907C82.6952 39.5907 85.9912 37.6747 87.9189 34.769C89.052 33.0601 89.7132 31.0074 89.7132 28.7994C89.7132 26.5914 89.052 24.5387 87.9189 22.8298C85.9912 19.9241 82.6952 18.0081 78.9531 18.0081C75.7001 18.0081 72.7885 19.4537 70.8149 21.7394V11.417C73.2847 10.249 76.0443 9.5974 78.9531 9.5974C82.9419 9.5974 86.6467 10.8244 89.7118 12.9174V0H98.0981H98.0967Z" fill="url(#paint2_linear_16_3)"/>
<path id="d_2" d="M68.1924 0V28.7994C68.1924 33.3348 66.6233 37.5021 63.9999 40.7875C63.4492 41.4794 62.8525 42.131 62.2128 42.738C58.7834 46.0005 54.1477 47.9999 49.0488 47.9999C43.9498 47.9999 39.3142 45.999 35.8848 42.738C37.7953 40.4336 39.2453 37.7293 40.083 34.769C42.0107 37.6747 45.3067 39.5907 49.0488 39.5907C52.7909 39.5907 56.0869 37.6747 58.0146 34.769C59.1477 33.0601 59.8089 31.0074 59.8089 28.7994C59.8089 26.5914 59.1477 24.5387 58.0146 22.8298C56.0869 19.9241 52.7909 18.0081 49.0488 18.0081C45.3067 18.0081 42.0107 19.9241 40.083 22.8298C39.2439 19.868 37.7938 17.1651 35.8848 14.8607C39.3142 11.5983 43.9498 9.59884 49.0488 9.59884C53.0376 9.59884 56.7424 10.8258 59.8075 12.9188V0H68.1938H68.1924Z" fill="url(#paint3_linear_16_3)"/>
</g>
<g id="C">
<path id="Vector" d="M37.3401 34.5891C37.0561 35.2091 36.7305 35.8046 36.369 36.3757C33.6826 40.6234 28.9508 43.4414 23.5622 43.4414C21.874 43.4414 20.2504 43.1652 18.7343 42.6545C13.6311 40.9356 9.74125 36.5684 8.68848 31.1814C9.83448 35.9053 14.0786 39.4108 19.1417 39.4108C22.2311 39.4108 25.0166 38.1047 26.9801 36.0132C27.3946 35.5716 27.7718 35.0954 28.1075 34.5891H37.3401Z" fill="url(#paint4_linear_16_3)"/>
<path id="Vector_2" d="M37.3406 34.5905C36.995 35.6535 36.5604 36.6734 36.0426 37.6457C35.4832 38.6958 34.8306 39.6869 34.0948 40.609C33.544 41.3009 32.9474 41.9525 32.3062 42.5595C28.8754 45.8219 24.2397 47.8214 19.1422 47.8214C17.4942 47.8214 15.895 47.6128 14.3689 47.2201C9.11218 44.6985 5.4834 39.3158 5.4834 33.083C5.4834 26.8501 9.12796 21.4458 14.4033 18.9314C11.047 20.5842 8.67615 23.9401 8.40794 27.8757C8.39216 28.1217 8.38212 28.3706 8.38212 28.6209C8.38212 29.5026 8.48682 30.3614 8.68762 31.1813C9.7404 36.5698 13.6302 40.9369 18.7335 42.6545C20.2495 43.1651 21.8731 43.4413 23.5613 43.4413C28.95 43.4413 33.6817 40.6219 36.3682 36.3756C36.7296 35.8045 37.0552 35.2076 37.3392 34.589L37.3406 34.5905Z" fill="url(#paint5_linear_16_3)"/>
<path id="Vector_3" d="M28.108 22.6513C26.1803 19.7457 22.8843 17.8311 19.1422 17.8311C17.7523 17.8311 16.4227 18.0957 15.2036 18.5776C15.2021 18.5776 15.1993 18.5776 15.1978 18.5791C14.9612 18.6726 14.7288 18.7747 14.5022 18.884C14.4692 18.8984 14.4362 18.9142 14.4047 18.9301C9.13076 21.443 5.48476 26.8358 5.48476 33.0816C5.48476 39.3274 9.11498 44.6972 14.3703 47.2188C9.32869 45.9213 5.0889 42.6157 2.55019 38.2025C0.927992 35.3831 0 32.1106 0 28.6209C0 24.0567 1.5892 19.8622 4.24266 16.5667C6.87604 14.3486 10.2739 13.0137 13.9816 13.0137C15.6697 13.0137 17.2948 13.2884 18.8123 13.7976C18.8897 13.8235 18.9672 13.8494 19.0432 13.8767C19.0446 13.8767 19.0475 13.8782 19.0504 13.8782C19.1493 13.9141 19.2469 13.9501 19.3458 13.9875C19.3817 14.0005 19.4161 14.0148 19.452 14.0278C19.4878 14.0407 19.5223 14.0551 19.5567 14.0681C19.6126 14.0911 19.67 14.1141 19.7259 14.1371C19.7862 14.1616 19.8464 14.186 19.9052 14.2119C19.9655 14.2378 20.0257 14.2637 20.0874 14.291C20.0874 14.291 20.0888 14.291 20.0902 14.2925C20.1505 14.3184 20.2107 14.3457 20.2724 14.3745C20.3929 14.4291 20.5148 14.4867 20.6338 14.5456C20.6984 14.5773 20.7629 14.6089 20.8275 14.642C20.8978 14.6765 20.9652 14.7125 21.034 14.7485C21.1215 14.7945 21.2076 14.8405 21.2936 14.888C21.3539 14.9211 21.4141 14.9556 21.4743 14.9887C21.5418 15.0261 21.6077 15.0649 21.6737 15.1038C21.777 15.1642 21.8803 15.2275 21.9821 15.2908C22.0839 15.354 22.1858 15.4188 22.2862 15.4849C22.421 15.5727 22.5529 15.6619 22.6835 15.7539C22.7494 15.8 22.814 15.846 22.8785 15.892C22.9431 15.9395 23.0076 15.9855 23.0722 16.0344C23.1367 16.0833 23.1998 16.1308 23.2629 16.1797C23.3891 16.2775 23.5139 16.3782 23.6358 16.4789C23.7032 16.5336 23.7707 16.5911 23.8366 16.6472C23.894 16.6961 23.9528 16.7465 24.0088 16.7968C24.0661 16.8472 24.1235 16.8975 24.1794 16.9493C24.2368 17.0011 24.2956 17.0543 24.353 17.109C24.3587 17.1133 24.363 17.119 24.3688 17.1248C24.3745 17.1305 24.3802 17.1349 24.386 17.1406C24.4347 17.1866 24.4821 17.2312 24.528 17.2758C24.5724 17.319 24.6155 17.3621 24.6599 17.4053C24.6671 17.4125 24.6743 17.4182 24.6814 17.4254C24.7001 17.4456 24.7216 17.4657 24.7417 17.4858C24.8378 17.5822 24.9324 17.6815 25.0285 17.7822C25.083 17.8411 25.1404 17.903 25.1949 17.962C25.2724 18.0468 25.3498 18.1331 25.4244 18.2195C25.499 18.3058 25.5721 18.3921 25.6453 18.4798C25.6467 18.4813 25.6482 18.4841 25.6496 18.4841C25.6826 18.523 25.7141 18.5604 25.7457 18.5992C25.7772 18.6366 25.8088 18.6754 25.8389 18.7143C25.8576 18.7387 25.8762 18.7632 25.8963 18.7876C25.9565 18.8653 26.0182 18.9444 26.0784 19.0236C26.1358 19.0998 26.1946 19.1789 26.252 19.2566C26.252 19.2566 26.252 19.2566 26.252 19.258C26.3022 19.3271 26.3524 19.3961 26.4026 19.468C26.4356 19.5155 26.4686 19.563 26.5016 19.6104C26.5303 19.6536 26.5604 19.6953 26.5891 19.7399C26.6177 19.7831 26.6464 19.8262 26.6751 19.8694C26.6938 19.8996 26.7138 19.9283 26.7325 19.9585C26.7755 20.0262 26.8185 20.0938 26.8616 20.1614C26.9132 20.2434 26.9634 20.3268 27.0136 20.4102C27.0208 20.4232 27.028 20.4361 27.0366 20.4476C27.1126 20.5742 27.1843 20.7022 27.256 20.8303C27.2962 20.9022 27.3349 20.9741 27.3736 21.0489C27.3779 21.0561 27.3822 21.0647 27.3865 21.0719C27.4296 21.1539 27.4726 21.2359 27.5142 21.3179C27.5142 21.3179 27.5156 21.3193 27.5156 21.3208C27.5386 21.3668 27.563 21.4143 27.5859 21.4617C27.6117 21.5135 27.6375 21.5653 27.6619 21.6171C27.6806 21.6574 27.7006 21.6991 27.7193 21.7394C27.7623 21.8314 27.8053 21.9249 27.8469 22.0184C27.8613 22.0501 27.8756 22.0817 27.89 22.1119C27.9115 22.1608 27.933 22.2112 27.9531 22.2615C27.966 22.2917 27.9789 22.3205 27.9904 22.3507C28.032 22.45 28.0721 22.5492 28.1109 22.6485L28.108 22.6513Z" fill="url(#paint6_linear_16_3)"/>
<path id="Vector_4" d="M37.3429 22.6548H28.1075C28.1075 22.6548 28.1075 22.6533 28.1075 22.6519C28.0687 22.5526 28.0286 22.4534 27.987 22.3541C27.9755 22.3239 27.9626 22.2952 27.9497 22.2649C27.9282 22.2146 27.9067 22.1643 27.8866 22.1153C27.8722 22.0837 27.8579 22.0521 27.8435 22.0218C27.8019 21.9283 27.7589 21.8348 27.7159 21.7428C27.6972 21.7025 27.6786 21.6608 27.6585 21.6205C27.6327 21.5687 27.6083 21.5169 27.5825 21.4652C27.5596 21.4177 27.5366 21.3717 27.5122 21.3242C27.5122 21.3242 27.5122 21.3228 27.5108 21.3213C27.4692 21.2393 27.4262 21.1559 27.3831 21.0753C27.3788 21.0681 27.376 21.0595 27.3702 21.0523C27.3315 20.979 27.2913 20.9056 27.2526 20.8337C27.1809 20.7057 27.1092 20.5776 27.0332 20.4511C27.026 20.4381 27.0174 20.4252 27.0102 20.4137C26.96 20.3302 26.9098 20.2482 26.8582 20.1648C26.8151 20.0972 26.7736 20.0296 26.7291 19.962C26.7104 19.9318 26.6918 19.903 26.6717 19.8728C26.643 19.8296 26.6143 19.7865 26.5857 19.7433C26.557 19.7002 26.5283 19.657 26.4982 19.6139C26.4666 19.5664 26.4336 19.5189 26.3992 19.4715C26.3504 19.401 26.3002 19.3305 26.2486 19.2614C26.2486 19.2614 26.2486 19.2614 26.2486 19.26C26.1912 19.1809 26.1339 19.1032 26.0751 19.027C26.0148 18.9479 25.9546 18.8687 25.8929 18.7911C25.8728 18.7666 25.8527 18.7422 25.8355 18.7177C25.804 18.6789 25.7738 18.64 25.7423 18.6026C25.7107 18.5638 25.6792 18.525 25.6462 18.4876C25.6462 18.4876 25.6448 18.4847 25.6419 18.4832C25.5702 18.3955 25.497 18.3092 25.421 18.2229C25.345 18.1366 25.2675 18.0517 25.1915 17.9654C25.137 17.905 25.0796 17.8446 25.0251 17.7856C24.9319 17.6863 24.8358 17.5871 24.7383 17.4893C24.7182 17.4691 24.6981 17.449 24.678 17.4289C24.6709 17.4217 24.6637 17.4159 24.6565 17.4087C24.6135 17.3656 24.569 17.321 24.5246 17.2793C24.4787 17.2332 24.4313 17.1886 24.3826 17.144C24.3768 17.1383 24.3711 17.134 24.3654 17.1282C24.3596 17.1239 24.3553 17.1181 24.3496 17.1124C24.2922 17.0592 24.2348 17.0059 24.176 16.9527C24.1201 16.9009 24.0627 16.8506 24.0054 16.8002C23.948 16.7485 23.8906 16.6996 23.8332 16.6506C23.7673 16.5945 23.7013 16.5384 23.6324 16.4823C23.5091 16.3802 23.3857 16.281 23.2595 16.1831C23.1964 16.1342 23.1333 16.0853 23.0688 16.0379C23.0042 15.989 22.9397 15.9415 22.8751 15.8955C22.8106 15.848 22.746 15.802 22.6801 15.7574C22.5495 15.6653 22.4176 15.5747 22.2828 15.4884C22.1824 15.4208 22.082 15.3575 21.9787 15.2942C21.8769 15.2294 21.7736 15.1676 21.6703 15.1072C21.6043 15.0683 21.5384 15.0295 21.4709 14.9921C21.4107 14.9576 21.3505 14.9245 21.2902 14.8914C21.2042 14.8439 21.1181 14.7979 21.0306 14.7519C20.9618 14.7145 20.8929 14.6785 20.8241 14.6454C20.7595 14.6123 20.695 14.5807 20.6304 14.5491C20.51 14.4901 20.3909 14.4325 20.269 14.3779C20.2088 14.3491 20.1485 14.3232 20.0868 14.2959C20.0868 14.2959 20.0854 14.2959 20.084 14.2944C20.0237 14.2671 19.9635 14.2412 19.9018 14.2153C19.843 14.1894 19.7828 14.165 19.7225 14.1405C19.6666 14.1175 19.6092 14.0945 19.5533 14.0715C19.5189 14.0585 19.483 14.0442 19.4486 14.0312C19.4142 14.0183 19.3783 14.0039 19.3424 13.9909C19.2449 13.9535 19.1459 13.9176 19.047 13.8816C19.0455 13.8816 19.0427 13.8816 19.0398 13.8802C18.9638 13.8528 18.8863 13.8269 18.8089 13.8011C17.2914 13.2918 15.6663 13.0171 13.9782 13.0171C10.2705 13.0171 6.87263 14.352 4.23926 16.5701C7.74756 12.2116 13.119 9.42383 19.1402 9.42383C24.2391 9.42383 28.8748 11.4247 32.3042 14.6857C32.9439 15.2942 33.542 15.9444 34.0928 16.6363C34.8429 17.5741 35.507 18.5839 36.0707 19.6541C36.577 20.6107 37.0016 21.6133 37.3415 22.6576L37.3429 22.6548Z" fill="url(#paint7_linear_16_3)"/>
</g>
</g>
</g>
<g id="Section">
<g id="BG" clip-path="url(#clip2_16_3)">
<g id="Group 143725928">
<g id="Group" opacity="0.7">
<path id="Vector_5" d="M66.9053 956C28.9209 727.815 177.63 483.086 517.02 440.681C790.507 406.454 1422.95 545.266 1500.81 -29" stroke="#B2DDFF" stroke-miterlimit="10" stroke-linecap="round"/>
<path id="Vector_6" d="M38.9868 944.781C13.9171 710.13 176.11 462.739 528.985 432.695C808.93 408.926 1424.47 557.436 1517.15 -0.857178" stroke="#B2DDFF" stroke-miterlimit="10" stroke-linecap="round"/>
<path id="Vector_7" d="M11.2586 933.752C-1.08636 692.636 174.781 442.203 541.33 424.899C827.732 411.398 1426.37 569.606 1533.67 27.2856" stroke="#B2DDFF" stroke-miterlimit="10" stroke-linecap="round"/>
</g>
</g>
</g>
</g>
</g>
</g>
</g>
<defs>
<filter id="filter0_dddd_16_3" x="-36" y="-18" width="1368" height="110" filterUnits="userSpaceOnUse" color-interpolation-filters="sRGB">
<feFlood flood-opacity="0" result="BackgroundImageFix"/>
<feColorMatrix in="SourceAlpha" type="matrix" values="0 0 0 0 0 0 0 0 0 0 0 0 0 0 0 0 0 0 127 0" result="hardAlpha"/>
<feOffset dy="1"/>
<feGaussianBlur stdDeviation="1.5"/>
<feColorMatrix type="matrix" values="0 0 0 0 0.388235 0 0 0 0 0.388235 0 0 0 0 0.388235 0 0 0 0.1 0"/>
<feBlend mode="normal" in2="BackgroundImageFix" result="effect1_dropShadow_16_3"/>
<feColorMatrix in="SourceAlpha" type="matrix" values="0 0 0 0 0 0 0 0 0 0 0 0 0 0 0 0 0 0 127 0" result="hardAlpha"/>
<feOffset dy="5"/>
<feGaussianBlur stdDeviation="2.5"/>
<feColorMatrix type="matrix" values="0 0 0 0 0.388235 0 0 0 0 0.388235 0 0 0 0 0.388235 0 0 0 0.09 0"/>
<feBlend mode="normal" in2="effect1_dropShadow_16_3" result="effect2_dropShadow_16_3"/>
<feColorMatrix in="SourceAlpha" type="matrix" values="0 0 0 0 0 0 0 0 0 0 0 0 0 0 0 0 0 0 127 0" result="hardAlpha"/>
<feOffset dy="11"/>
<feGaussianBlur stdDeviation="3.5"/>
<feColorMatrix type="matrix" values="0 0 0 0 0.388235 0 0 0 0 0.388235 0 0 0 0 0.388235 0 0 0 0.05 0"/>
<feBlend mode="normal" in2="effect2_dropShadow_16_3" result="effect3_dropShadow_16_3"/>
<feColorMatrix in="SourceAlpha" type="matrix" values="0 0 0 0 0 0 0 0 0 0 0 0 0 0 0 0 0 0 127 0" result="hardAlpha"/>
<feOffset dy="20"/>
<feGaussianBlur stdDeviation="4"/>
<feColorMatrix type="matrix" values="0 0 0 0 0.388235 0 0 0 0 0.388235 0 0 0 0 0.388235 0 0 0 0.01 0"/>
<feBlend mode="normal" in2="effect3_dropShadow_16_3" result="effect4_dropShadow_16_3"/>
<feBlend mode="normal" in="SourceGraphic" in2="effect4_dropShadow_16_3" result="shape"/>
</filter>
<linearGradient id="paint0_linear_16_3" x1="756" y1="-48" x2="756" y2="1220.5" gradientUnits="userSpaceOnUse">
<stop stop-color="#EEF6FF" stop-opacity="0.35"/>
<stop offset="1" stop-color="#ECF5FF"/>
</linearGradient>
<linearGradient id="paint1_linear_16_3" x1="131.291" y1="12.7276" x2="71.2195" y2="72.6251" gradientUnits="userSpaceOnUse">
<stop stop-color="#00A79D"/>
<stop offset="0.43" stop-color="#27AAE1"/>
<stop offset="0.68" stop-color="#1C75BC"/>
<stop offset="1" stop-color="#2B3990"/>
</linearGradient>
<linearGradient id="paint2_linear_16_3" x1="113.536" y1="-5.08063" x2="53.4628" y2="54.817" gradientUnits="userSpaceOnUse">
<stop stop-color="#00A79D"/>
<stop offset="0.43" stop-color="#27AAE1"/>
<stop offset="0.68" stop-color="#1C75BC"/>
<stop offset="1" stop-color="#2B3990"/>
</linearGradient>
<linearGradient id="paint3_linear_16_3" x1="98.1851" y1="-20.475" x2="38.1124" y2="39.4226" gradientUnits="userSpaceOnUse">
<stop stop-color="#00A79D"/>
<stop offset="0.43" stop-color="#27AAE1"/>
<stop offset="0.68" stop-color="#1C75BC"/>
<stop offset="1" stop-color="#2B3990"/>
</linearGradient>
<linearGradient id="paint4_linear_16_3" x1="21.3247" y1="33.0111" x2="43.251" y2="54.8726" gradientUnits="userSpaceOnUse">
<stop stop-color="#2B3990"/>
<stop offset="0.32" stop-color="#1C75BC"/>
<stop offset="0.57" stop-color="#27AAE1"/>
<stop offset="1" stop-color="#00A79D"/>
</linearGradient>
<linearGradient id="paint5_linear_16_3" x1="7.51724" y1="23.1446" x2="38.9201" y2="54.4567" gradientUnits="userSpaceOnUse">
<stop stop-color="#2B3990"/>
<stop offset="0.32" stop-color="#1C75BC"/>
<stop offset="0.57" stop-color="#27AAE1"/>
<stop offset="1" stop-color="#00A79D"/>
</linearGradient>
<linearGradient id="paint6_linear_16_3" x1="-0.582325" y1="41.8087" x2="25.1286" y2="16.1736" gradientUnits="userSpaceOnUse">
<stop stop-color="#00A79D"/>
<stop offset="0.43" stop-color="#27AAE1"/>
<stop offset="0.68" stop-color="#1C75BC"/>
<stop offset="1" stop-color="#2B3990"/>
</linearGradient>
<linearGradient id="paint7_linear_16_3" x1="5.70368" y1="3.01262" x2="30.9226" y2="28.1601" gradientUnits="userSpaceOnUse">
<stop stop-color="#00A79D"/>
<stop offset="0.43" stop-color="#27AAE1"/>
<stop offset="0.68" stop-color="#1C75BC"/>
<stop offset="1" stop-color="#2B3990"/>
</linearGradient>
<clipPath id="clip0_16_3">
<rect width="1512" height="5470" fill="white" transform="translate(-108 -56)"/>
</clipPath>
<clipPath id="clip1_16_3">
<rect width="1512" height="982" fill="white" transform="translate(-108 -56)"/>
</clipPath>
<clipPath id="clip2_16_3">
<rect width="2186" height="985" fill="white" transform="translate(-406 -29)"/>
</clipPath>
</defs>
</svg>
